<?xml version="1.0" encoding="UTF-8"?>
<svg id="Layer_2" data-name="Layer 2" xmlns="http://www.w3.org/2000/svg" viewBox="0 0 917.82 214.95">
  <defs>
    <style>
      .cls-1 {
        fill: #e7afc7;
        stroke: #000;
        stroke-miterlimit: 10;
      }
    </style>
  </defs>
  <g id="Layer_1-2" data-name="Layer 1">
    <g>
      <path class="cls-1" d="m103.33,165.55c-.75.46-1.13.98-1.16,1.57-.03.59-.04,1.25-.02,1.98.06.51.15,1.06.29,1.64.14.59.18,1.15.14,1.69-.05.54-.14,1.08-.3,1.6-.16.53-.59.91-1.29,1.14-1.14.27-2.16-.12-3.07-1.19-.39-.5-.69-1.06-.9-1.68-.21-.62-.64-1.23-1.3-1.86-.09,1.4.04,2.68.37,3.83.33,1.15.69,2.3,1.08,3.44.35,1.36.72,2.71,1.12,4.05.4,1.34.72,2.71.98,4.1.51,1.51.43,2.91-.23,4.2-.37.86-.9,1.41-1.59,1.65-.79.27-1.63.08-2.51-.56-.36-.41-.66-.78-.88-1.12-.23-.34-.48-.74-.74-1.17-.72-1.44-1.35-2.87-1.89-4.27-.54-1.4-1.07-2.86-1.6-4.37-.46-1.32-.89-2.58-1.3-3.76-.41-1.18-.89-2.42-1.45-3.7-.46-1.32-1.15-2.35-2.08-3.09-.34.65-.43,1.21-.26,1.68.16.47.33.95.49,1.42.16.79.33,1.53.51,2.2.18.68.3,1.43.36,2.26.03,1.05-.34,1.76-1.11,2.13-.97.44-1.86.28-2.7-.48-2.16-2.31-4.15-4.74-5.96-7.28-1.81-2.54-3.26-5.31-4.33-8.33-1.55-4.65-2.68-9.34-3.38-14.08-.7-4.74-1.54-9.48-2.51-14.23-.16-.79-.35-1.57-.56-2.35-.21-.77-.45-1.53-.72-2.29-.17-.47-.48-.68-.93-.63-.56.09-.91.43-1.05,1.01,0,.64-.04,1.29-.1,1.95-.06.66-.08,1.36-.05,2.09-.19,1.77-.67,3.45-1.44,5.06-.77,1.61-2.14,2.76-4.1,3.48-1.14.41-2.2.54-3.2.37-1-.16-1.95-.51-2.84-1.03-.9-.52-1.72-1.15-2.46-1.89-.75-.74-1.43-1.47-2.06-2.2-.42-.48-.89-.95-1.41-1.4-.52-.45-1.11-.44-1.77.02-.76.5-.97,1.06-.62,1.67.35.62.75,1.21,1.21,1.79,2.79,3.65,5.3,7.39,7.53,11.2,2.23,3.81,3.87,7.92,4.93,12.33.28,1.07.58,2.27.9,3.59.32,1.32.51,2.69.58,4.11.07,1.42.04,2.79-.09,4.12-.13,1.33-.51,2.54-1.12,3.63-1.04,1.78-1.29,3.69-.74,5.73.18.79.3,1.68.34,2.68.04,1-.49,1.71-1.58,2.13-1.19.45-2.25.22-3.17-.71-.42-.48-.75-.99-1.02-1.54-.27-.54-.61-1.05-1.02-1.54-.59.55-.86,1.54-.82,2.97.04,1.43.22,2.92.54,4.46.31,1.54.72,3.02,1.22,4.44.49,1.42.87,2.45,1.12,3.1.33.84.64,1.71.93,2.61.29.9.49,1.77.59,2.59.36,1.79-.24,2.99-1.79,3.6-1.36.54-2.56-.07-3.58-1.81-1.73-3.51-3.31-7.08-4.75-10.7-.44-1.11-.9-2.2-1.37-3.25-.48-1.05-1.08-2.07-1.82-3.07-.38-.38-.78-.79-1.18-1.23-.4-.43-.95-.51-1.65-.23-.7.28-1.07.72-1.11,1.33-.04.61.07,1.24.33,1.89.2.78.49,1.58.88,2.4.38.82.67,1.61.87,2.4.19.46.4.94.66,1.43.25.49.42.99.51,1.49.12.6.16,1.17.1,1.74-.06.56-.46,1.05-1.21,1.46-.65.37-1.27.46-1.86.27-.59-.19-1.13-.46-1.61-.8-.73-.67-1.35-1.34-1.85-2-2.54-4.26-5.13-8.41-7.78-12.46-2.65-4.05-5.19-8.16-7.63-12.35-8.08-13.86-13.13-28.61-14.81-44.35-.55-4.64-1.08-9.25-1.59-13.85-.51-4.6-.53-9.25-.05-13.97.25-2.47.59-4.92,1-7.34.41-2.42,1.03-4.82,1.85-7.19,1.22-3.27,3.58-5.59,7.08-6.94,1.64-.63,3.27-.93,4.91-.92.76.03,1.46.14,2.09.33.63.19,1.31.41,2.03.67,1.95.87,3.79,1.81,5.53,2.81,1.74,1.01,3.48,2.04,5.23,3.1.82.55,1.81,1.15,2.97,1.78,1.16.64,2.35,1.21,3.58,1.72,1.23.51,2.48.85,3.77,1.02,1.28.17,2.46.07,3.55-.32,2.05-.74,3.71-2.39,5-4.97.49-1.02.88-2.09,1.16-3.19.28-1.11.55-2.18.8-3.22.38-1.72.84-3.47,1.39-5.25.55-1.78,1.25-3.55,2.12-5.33.82-1.55,1.82-2.93,3.02-4.12,1.19-1.2,2.74-2.06,4.65-2.6,2.38-.59,4.54-.65,6.47-.18,1.93.47,3.64,1.31,5.13,2.5,1.49,1.2,2.84,2.55,4.05,4.05,1.21,1.5,2.3,2.99,3.26,4.46,5.27,7.76,10.05,16.31,14.36,25.64,4.31,9.33,8.05,18.38,11.26,27.12,1.89,5.28,3.46,10.57,4.74,15.88,1.28,5.31,1.7,10.87,1.31,16.66-.19,1.85-.16,3.7.1,5.56.26,1.86.58,3.72.96,5.6.29,1.59.35,2.98.19,4.19-.26.92-.69,1.54-1.31,1.84-.62.3-1.29.21-2-.3-.52-.25-.93-.56-1.22-.94-.29-.38-.56-.79-.82-1.23-.7-1.46-1.44-2.87-2.22-4.24-.78-1.38-1.51-2.74-2.18-4.1-.19-.25-.34-.52-.43-.8-.09-.29-.39-.5-.89-.66Zm-62.12,42.14c.6,1.48.16,2.52-1.3,3.11-1.56.63-2.64.21-3.24-1.28-.49-1.2-.14-2.16,1.06-2.86.68-.28,1.38-.31,2.09-.11.7.2,1.17.58,1.39,1.14Zm19.58-11.51c.18.79.1,1.54-.24,2.26-.35.72-.91,1.23-1.7,1.53-.82.21-1.6.16-2.34-.15-.74-.31-1.25-.83-1.54-1.58-.29-.75-.27-1.5.06-2.27.33-.77.88-1.3,1.68-1.61.79-.3,1.6-.26,2.42.12.82.38,1.37.95,1.66,1.7Zm24.61-14.24c1.1-.38,1.83-.06,2.19.98.33.94.03,1.68-.9,2.22-.47.27-.98.29-1.56.07-.58-.22-.91-.58-.97-1.09-.17-1.11.25-1.84,1.24-2.19Zm19.47-3.63c.25.76.23,1.45-.06,2.07-.29.62-.84,1.07-1.63,1.33-.77.36-1.5.4-2.21.11-.71-.29-1.22-.75-1.54-1.38-.36-.73-.36-1.46,0-2.22.36-.75.94-1.26,1.74-1.53.8-.27,1.53-.25,2.19.06.66.31,1.16.82,1.51,1.55Zm9.75,5.02c.5-.16,1.03-.12,1.6.11.57.24.93.59,1.08,1.07.28.54.26,1.07-.06,1.6-.32.52-.72.91-1.18,1.17-1.29.42-2.24,0-2.88-1.27-.43-1.33.04-2.22,1.43-2.67Z"/>
      <path class="cls-1" d="m121.35,136.1c-1.31-4.31-2.19-8.22-2.63-11.74-.44-3.52-.8-7.07-1.07-10.65-.34-3.03-.78-6.03-1.32-9-.54-2.97-1.03-5.95-1.46-8.96-.34-2.3-1.1-4.29-2.31-5.96-1.21-1.67-2.72-3.18-4.54-4.51-2.57-1.83-5.06-3.69-7.48-5.56-2.42-1.87-4.89-3.77-7.42-5.71-.62-.44-1.03-.78-1.22-1.03-2.91-2.76-4.23-5.48-3.93-8.2.3-2.71,2.05-5.57,5.26-8.55,1.81-1.6,3.78-2.73,5.9-3.36,1.67-.5,3.37-.7,5.1-.59,1.73.11,3.45.41,5.16.9,1.71.49,3.39,1.07,5.03,1.74,1.64.67,3.11,1.4,4.4,2.17,1.44.84,2.89,1.65,4.37,2.42,1.47.78,2.98,1.58,4.52,2.39.3.23.65.42,1.05.56.4.15.86.31,1.38.47,1.15.3,2.22.32,3.21.05,1.32-.36,2.44-1.24,3.37-2.63,1.9-3.47,3.82-6.94,5.77-10.4.66-1.11,1.3-2.18,1.92-3.22.62-1.04,1.26-2.11,1.93-3.22,1.21-1.76,2.59-3.25,4.14-4.47,1.54-1.22,3.56-1.88,6.04-1.99,2.62-.04,4.81.51,6.57,1.62,1.76,1.11,3.26,2.55,4.52,4.3.96,1.52,1.55,3.12,1.78,4.82.23,1.69.27,3.43.12,5.22-.56,4.46-1.85,8.99-3.85,13.61-2,4.62-3.97,8.98-5.92,13.1-3.21,7.33-2.93,14.19.67,20.59,4.28,7.26,7.36,15.14,9.33,23.62.52,2.45.95,4.89,1.31,7.33.35,2.44.57,4.89.66,7.34.06,2.36.29,4.6.68,6.72.39,2.12.97,4.27,1.76,6.44.66,1.69.96,3.47.9,5.35-.11,1.68-.86,2.7-2.28,3.08-1.44.28-2.52-.32-3.23-1.78-.44-.82-.82-1.65-1.15-2.49-.33-.84-.67-1.68-1-2.53-.1-.39-.29-.88-.56-1.48-.27-.6-.58-1.16-.94-1.69-.36-.53-.78-.96-1.25-1.3-.48-.34-.97-.44-1.48-.3-.51.14-.99.58-1.45,1.32-.41.53-.62,1.05-.64,1.57-.02.52-.07,1.06-.14,1.59-.07.54-.1,1.04-.08,1.5.02.46-.06.97-.23,1.54-.45,1.16-1.07,1.85-1.88,2.07-.91.25-1.82-.07-2.72-.96-.31-.33-.58-.69-.8-1.1-.22-.4-.49-.77-.8-1.1-.65-1.16-1.32-1.19-1.99-.07-.65.81-1,1.63-1.03,2.47-.04.84-.05,1.67-.03,2.5.15,1.31.37,2.57.66,3.79.29,1.22.51,2.48.67,3.79.12.8.26,1.59.43,2.37.17.78.26,1.59.28,2.42.06.61.05,1.23-.03,1.88-.09.65-.58,1.1-1.47,1.36-.77.32-1.41.27-1.91-.15-.5-.43-.95-.95-1.34-1.56-.71-.94-1.3-1.97-1.79-3.07-.48-1.11-.95-2.23-1.38-3.35-.49-1.32-.98-2.61-1.45-3.87-.48-1.27-.96-2.56-1.46-3.87-.43-.71-.86-1.44-1.3-2.2-.44-.76-1.01-1.4-1.72-1.92-.26-.13-.58-.27-.95-.42-.38-.15-.75-.12-1.13.1-.48.25-.72.55-.72.92,0,.37.04.69.12.98.15.89.35,1.75.59,2.56.24.81.44,1.67.59,2.56.1.7.1,1.35,0,1.95-.1.6-.53,1.07-1.31,1.41-.78.34-1.46.36-2.04.06-.58-.3-1.13-.73-1.63-1.31-.38-.51-.76-1.05-1.15-1.61-.39-.56-.67-1.13-.85-1.7-1.79-4.47-3.54-8.85-5.23-13.15-1.69-4.29-3.2-8.22-4.51-11.8Zm15.59,34c.8-.24,1.58-.19,2.34.16.76.35,1.25.91,1.48,1.67.23.77.17,1.51-.15,2.24-.33.72-.89,1.2-1.69,1.44-.8.24-1.53.17-2.18-.21-.66-.38-1.14-.89-1.44-1.52-.33-.74-.34-1.47,0-2.19.33-.72.88-1.26,1.65-1.59Zm25.77,1.34c-.9.25-1.73.17-2.49-.24-.76-.41-1.25-1-1.46-1.77-.22-.77-.08-1.54.42-2.3.49-.76,1.14-1.25,1.95-1.47.8-.22,1.56-.14,2.26.24.7.38,1.15.95,1.36,1.73.34.84.28,1.63-.16,2.38-.44.74-1.07,1.22-1.87,1.44Zm14.64,3.05c-.8.21-1.54.14-2.21-.19-.68-.34-1.07-.91-1.17-1.71-.18-.68-.07-1.38.33-2.1.4-.73.95-1.18,1.65-1.37.53-.04,1.13.12,1.81.46.68.34,1.15.84,1.43,1.49.18.68.08,1.35-.28,2.01-.36.66-.88,1.13-1.55,1.41Z"/>
      <path class="cls-1" d="m294.3,118.11c-.74.82-1.08,1.55-1.04,2.2.04.65,0,1.29-.12,1.91-.36,1.87-1.32,2.92-2.87,3.16-.83.13-1.76-.04-2.78-.49-.45-.13-.83-.4-1.16-.81-.33-.4-.74-.47-1.23-.19-.7.31-1.13.76-1.31,1.34-.17.58-.32,1.19-.43,1.81-.3,1.46-.36,2.92-.19,4.36.17,1.44.27,2.92.3,4.43.02.81.05,1.64.08,2.49.03.85-.15,1.72-.53,2.59-.21.64-.51,1.22-.9,1.74-.39.52-.99.84-1.81.97-.83.03-1.5-.16-1.98-.59-.49-.43-.89-.97-1.21-1.62-.64-1.32-1.12-2.65-1.45-4.02-.33-1.37-.66-2.73-.99-4.09-.22-.67-.4-1.3-.55-1.88-.15-.58-.37-1.11-.66-1.56-.29-.46-.57-.84-.83-1.15-.27-.31-.7-.37-1.3-.16-1.04.17-1.57.82-1.59,1.94-.12.53-.17,1.04-.14,1.54.03.5-.01,1.01-.14,1.54-.25,2.27-1.16,3.44-2.73,3.51-1.64.29-2.95-.55-3.94-2.51-.16-.28-.26-.59-.32-.93-.06-.35-.18-.71-.35-1.08-.14-.79-.52-1.43-1.14-1.93-.67.42-1.04.92-1.09,1.49-.06.57-.1,1.11-.11,1.62.14,2,.37,4.02.69,6.05.31,2.03.59,4.03.84,6.02.14.79.23,1.58.27,2.39.04.81-.07,1.64-.34,2.5-.21,1.16-.87,1.83-1.99,2.04-1.12.2-2.08-.18-2.88-1.15-.81-.97-1.36-1.94-1.64-2.9-.53-1.73-.99-3.48-1.37-5.24-.38-1.76-.75-3.58-1.09-5.44-.4-1.55-.76-3.09-1.1-4.6-.34-1.51-.75-2.99-1.23-4.42-.2-.47-.41-1.02-.63-1.64-.22-.62-.7-.86-1.42-.72-.73.14-1.06.53-.99,1.18.07.65.1,1.23.09,1.74,0,1.12.12,2.17.36,3.14.24.97.56,1.98.97,3.02.41,1.04.7,2.03.88,2.96.18.93.26,1.96.26,3.08.08,2.12-.74,3.35-2.47,3.68-1.02.2-1.87.03-2.56-.5-.69-.53-1.25-1.23-1.69-2.12-.44-.88-.78-1.81-1.02-2.78-.25-.97-.43-1.8-.57-2.49-1.17-4.86-2.33-9.68-3.49-14.45-1.16-4.76-2.32-9.58-3.5-14.44-.47-1.84-.79-3.69-.93-5.55-.15-1.86-.07-3.73.22-5.62.63-5.22,2.56-9.47,5.79-12.73,3.23-3.26,7.68-5.35,13.33-6.25,2.05-.36,4.07-.66,6.03-.9,1.97-.23,3.93-.46,5.9-.69.54-.09,1.14-.16,1.8-.22.66-.06,1.25-.18,1.77-.37,1.79-.6,2.39-1.7,1.8-3.33-.53-1.23-1.4-2.3-2.62-3.22-1.21-.92-2.57-1.68-4.07-2.29-1.51-.61-3.05-1.11-4.63-1.5-1.58-.39-3.01-.68-4.28-.86-1.96-.27-3.87-.54-5.73-.82-1.86-.28-3.78-.59-5.77-.94-2.7-.52-5.49-1.48-8.37-2.87-2.4-1.27-4.35-2.76-5.82-4.46-1.47-1.7-2.52-3.53-3.14-5.5-.62-1.97-.86-3.93-.72-5.9.14-1.96.5-3.82,1.09-5.56,1.22-3.29,3.02-6.23,5.39-8.81,2.37-2.58,5.08-4.83,8.13-6.75,3.05-1.92,6.36-3.52,9.95-4.79,3.58-1.27,7.2-2.2,10.85-2.79,1.94-.31,4.09-.55,6.45-.72,2.37-.17,4.65-.11,6.85.16,2.2.28,4.23.83,6.09,1.67,1.87.84,3.33,2.15,4.39,3.91,1.17,1.75,1.51,3.52,1.02,5.31-.5,1.79-1.62,3.36-3.37,4.73-2.61,1.8-5.83,2.88-9.67,3.27-.9.14-1.8.23-2.72.27-.91.04-1.82.13-2.71.28-1.47.13-2.9.39-4.28.76-1.38.38-2.62,1.06-3.72,2.05-2.23,1.79-2.08,3.34.43,4.64,1.39.78,2.8,1.36,4.23,1.74,1.43.37,2.96.64,4.58.78,1.41.28,2.81.49,4.2.63,1.39.14,2.78.3,4.17.5,6.98,1.06,12.65,3.46,16.99,7.15,4.34,3.69,7.6,8.43,9.8,14.18,1.32,3.26,1.97,6.57,1.98,9.95,0,3.38-.1,6.74-.3,10.1-.21,3.36-.55,6.71-1.01,10.05-.47,3.35-.9,6.66-1.31,9.94-.38,2.68-.49,5.34-.34,8,.15,2.65.42,5.32.79,7.99.11.79.22,1.58.33,2.38.11.79.12,1.6.02,2.42-.09,1.63-.85,2.59-2.28,2.9-.83.12-1.5.01-2.02-.32-.52-.33-.99-.82-1.4-1.47-.32-.76-.56-1.49-.71-2.17-.15-.69-.29-1.42-.4-2.22-.3-2.08-.94-4.31-1.93-6.69Zm-26.12,23.6c.82-.14,1.55.01,2.21.46.65.45,1.05,1.06,1.18,1.85.23.77.1,1.5-.41,2.2-.51.7-1.16,1.16-1.96,1.4-.82.14-1.57,0-2.28-.44-.71-.44-1.13-1.05-1.27-1.83-.14-.79.04-1.56.54-2.3.5-.75,1.16-1.19,1.98-1.33Zm26.33-8.17c.22.78.05,1.56-.52,2.35-.57.79-1.3,1.3-2.21,1.54-.91.24-1.77.09-2.59-.44-.82-.53-1.29-1.2-1.41-1.98-.23-.78-.06-1.56.51-2.35.56-.8,1.3-1.31,2.22-1.55.91-.24,1.78-.09,2.6.44.82.54,1.28,1.2,1.4,1.99Zm10.75,11.49c.11.79-.09,1.55-.61,2.28-.52.73-1.18,1.2-1.98,1.42-.81.12-1.54-.06-2.17-.52-.64-.46-1.01-1.09-1.13-1.88-.29-1.98.52-3.21,2.43-3.68.82-.12,1.57.06,2.26.51.69.46,1.09,1.08,1.2,1.88Z"/>
      <path class="cls-1" d="m344.96,117.89c-.67.67-.97,1.36-.9,2.05.07.69.19,1.39.37,2.07.41,1.97.71,3.92.91,5.86.2,1.94.4,3.9.6,5.9.08.79.02,1.75-.17,2.88-.2,1.13-.91,1.75-2.14,1.88-1.33.14-2.21-.32-2.63-1.38-.42-1.06-.74-2.08-.95-3.07-.42-1.97-.73-3.92-.94-5.86-.21-1.94-.62-3.83-1.24-5.68-.3-.77-.56-1.5-.79-2.18-.23-.68-.55-1.4-.95-2.16-.25-.37-.48-.73-.67-1.06-.19-.33-.55-.47-1.08-.41-.62.17-.9.45-.86.85.04.4.03.8-.02,1.21.26,2.34.52,4.67.78,7.01.1.89.03,1.93-.2,3.12-.24,1.18-.92,1.84-2.05,1.97-1.24.14-2.28-.49-3.12-1.91-.85-1.41-1.43-2.55-1.74-3.42-1.39-4.67-2.92-9.32-4.6-13.95-1.68-4.63-3.34-9.27-4.99-13.9-3.56-9.63-5.89-19.72-6.89-30.28-.27-2.99-.39-6.8-.35-11.45.03-4.64.25-9.45.65-14.44.41-4.98,1.01-9.8,1.83-14.43.82-4.63,1.8-8.42,2.96-11.38,1.28-2.87,3.1-5.12,5.47-6.74,2.36-1.62,5.06-2.39,8.09-2.31,2.9.1,5.58,1.06,8.01,2.88,2.43,1.82,4.05,4.1,4.89,6.84,1.36,4.69,1.73,9.28,1.14,13.75-.71,4.49-1.13,8.5-1.3,12.03-.16,3.53-.03,7.49.4,11.87.12,1.19.43,2.17.95,2.92,1.31,2.08,3.19,2.7,5.66,1.87,1.51-.44,2.96-.87,4.36-1.3,1.4-.43,2.87-.7,4.41-.84,4.72-.4,9.01.52,12.81,2.74,3.8,2.22,6.62,5.64,8.46,10.22,1.02,2.24,1.69,4.45,2,6.63.31,2.19.54,4.43.69,6.72.34,5.09.1,10.02-.69,14.78-.79,4.77-1.98,9.51-3.53,14.23-.45,1.14-.79,2.21-1.03,3.23-.24,1.02-.53,2.09-.86,3.22-.17.51-.37,1.03-.59,1.55-.22.52-.7.85-1.41,1.01-.83.06-1.56-.21-2.18-.81-.62-.6-1.07-1.25-1.33-1.93-.23-.28-.47-.59-.7-.92-.24-.33-.61-.43-1.13-.29-.52.04-.95.33-1.27.86-.33.53-.59,1.1-.8,1.72-.21.62-.34,1.26-.39,1.91-.05.66-.06,1.18-.03,1.58-.11,1.21-.14,2.42-.09,3.62.05,1.2.02,2.41-.09,3.62-.04.8-.14,1.74-.31,2.81-.17,1.07-.76,1.69-1.78,1.88-.71.16-1.31.06-1.81-.29-.5-.36-.92-.77-1.27-1.24-.35-.47-.58-1.03-.69-1.67-.11-.64-.19-1.26-.24-1.86-.23-1.39-.46-2.77-.68-4.15-.23-1.39-.56-2.76-1-4.13-.73-2.24-1.82-3.3-3.28-3.16-1.36.13-2.24,1.31-2.66,3.56-.06.51-.07.93-.03,1.28.03.35.02.73-.05,1.13-.12.92-.54,1.46-1.25,1.63-.9.39-1.65.21-2.25-.53-.58-.55-.95-1.16-1.13-1.85-.17-.69-.4-1.37-.68-2.04-.17-.69-.35-1.35-.51-1.98-.17-.64-.55-1.28-1.14-1.92Zm-1.11,28.61c-1.52.16-2.37-.5-2.53-2,.03-.71.27-1.36.72-1.96.45-.6,1.04-.94,1.75-1.01.62.03,1.19.25,1.69.65.51.4.79.9.85,1.5.08.79-.11,1.44-.57,1.94-.46.5-1.1.79-1.91.88Zm6.92-17.58c.62-.06,1.16.11,1.61.52.45.41.71.86.75,1.36.06.6-.13,1.12-.55,1.56-.43.44-.95.64-1.58.6-1.24.02-1.98-.56-2.2-1.74-.14-1.4.51-2.16,1.96-2.3Zm26.08-1.62c.05.7-.16,1.34-.64,1.93-.48.59-1.13.91-1.95.97-.71.15-1.35,0-1.9-.46-.56-.46-.91-.98-1.06-1.57-.05-.7.18-1.37.7-2.01.52-.64,1.15-.99,1.87-1.05.72-.16,1.35,0,1.91.46.55.46.91,1.04,1.06,1.73Z"/>
      <path class="cls-1" d="m464.48,107.93c-.85.8-1.37,1.62-1.58,2.47-.21.85-.32,1.78-.32,2.77-.11.5-.16,1.05-.16,1.65,0,.6-.06,1.15-.16,1.65-.21,1.3-.89,2.1-2.04,2.4-1.35.3-2.39-.2-3.12-1.5-.47-.9-.94-1.8-1.42-2.7-.11-.2-.21-.43-.32-.67-.11-.25-.21-.48-.32-.67-.63.2-1.04.48-1.25.83-.21.35-.36.78-.46,1.28-.21.8-.33,1.6-.38,2.4-.05.8-.07,1.6-.06,2.4,0,1.6.02,3.15.03,4.65,0,1.5-.04,3.05-.13,4.65-.2,2.2-1.06,3.31-2.6,3.32-1.54.21-2.63-.63-3.27-2.52-.53-1.19-.88-2.39-1.05-3.59-.17-1.2-.26-2.4-.28-3.6-.12-1.5-.17-3-.13-4.5.03-1.5-.12-3-.45-4.49-.11-.5-.2-1-.25-1.5-.06-.5-.3-1-.73-1.49-.62.51-.9,1.06-.84,1.66.06.6.04,1.2-.05,1.8-.07,2.6-.83,4.01-2.28,4.23-.73.11-1.41-.15-2.04-.79-.64-.64-1.07-1.61-1.31-2.9-.82-4.49-1.7-8.92-2.63-13.3-.94-4.38-1.41-8.82-1.41-13.32.05-2.3-.02-4.63-.24-6.97-.21-2.35-.24-4.67-.07-6.98-.01-.5-.05-.92-.11-1.27-.06-.35-.15-.72-.27-1.12-.24-1.2-.86-1.83-1.83-1.91-1.09-.27-2.01.15-2.74,1.27-.52.81-.8,1.62-.83,2.42-.03.8.02,1.6.15,2.4.27,2,.46,3.94.56,5.84.1,1.9.4,3.84.88,5.83.83,3.28,1.15,6.55.97,9.8-.18,3.26-.55,6.49-1.09,9.71-.38,1.71-.62,3.44-.72,5.2-.11,1.75-.04,3.48.22,5.17.04,1.4-.14,2.55-.53,3.47-.2.51-.49.96-.9,1.38-.4.41-.97.58-1.7.5-1.24.04-1.99-.64-2.24-2.03-.23-.59-.35-1.19-.37-1.79-.02-.6-.14-1.2-.37-1.79-.13-.8-.26-1.64-.4-2.54-.14-.9-.32-1.74-.56-2.53-.23-.49-.48-.91-.75-1.25-.27-.34-.67-.5-1.2-.48-1.05.04-1.76.61-2.14,1.73-.2.41-.31.84-.34,1.29-.04.45-.1.93-.18,1.43-.19.51-.38.96-.57,1.37-.19.41-.66.63-1.38.65-.73.03-1.26-.2-1.59-.69-.33-.49-.62-1.02-.85-1.62-.12-.35-.24-.69-.36-1.04,0-.2-.07-.35-.18-.44-.24-.79-.63-1.22-1.16-1.3-.53.02-.86.19-1,.5-.14.31-.31.61-.51.92-.47,1.32-.65,2.93-.57,4.83.05,1.1.1,2.15.14,3.15.04,1,.04,2.05-.01,3.15,0,2.4-.72,3.63-2.16,3.7-.93-.06-1.55-.38-1.83-.96-.29-.59-.55-1.28-.8-2.06-.37-1.18-.66-2.4-.88-3.64-.22-1.24-.41-2.51-.58-3.8-.03-.6-.12-1.32-.27-2.16-.15-.84-.32-1.69-.52-2.53-.2-.84-.5-1.63-.91-2.36-.41-.73-.88-1.28-1.43-1.65-.7.74-.95,1.48-.75,2.22.2.74.32,1.51.36,2.31.03.6.14,1.17.33,1.71.19.54.19,1.07,0,1.58-.26,1.01-.75,1.59-1.47,1.73-.93.25-1.67,0-2.24-.78-1.02-1.44-1.7-3.21-2.03-5.29-.34-2.28-.69-4.59-1.04-6.93-.35-2.33-.7-4.64-1.04-6.93-.29-1.28-.58-2.52-.86-3.71-.29-1.18-.57-2.42-.86-3.7-1.13-4.44-1.64-8.86-1.53-13.28.11-4.41.52-8.9,1.23-13.45,1.35-8.59,3.22-17.41,5.65-26.46,2.43-9.04,5.56-17.56,9.43-25.54,1.77-3.68,4.71-6.64,8.82-8.84,4.11-2.2,8.42-3.37,12.91-3.49,3.79-.1,7.32.62,10.56,2.16,3.24,1.54,6.22,3.57,8.94,6.1,2.71,2.52,5.12,5.43,7.24,8.72,2.11,3.29,4.02,6.64,5.7,10.03,1.69,3.4,3.11,6.75,4.27,10.06,1.16,3.3,2.12,6.21,2.88,8.71,1.19,4.11,2.38,8.14,3.55,12.1,1.17,3.96,2.17,8,2.99,12.11,1.13,5.91,1.59,11.79,1.41,17.64-.18,5.85-1,11.71-2.43,17.6,0,.2-.06.4-.16.6-.66,2.39-1.61,3.58-2.87,3.57-1.05,0-2.3-.66-3.77-1.97Zm-65.38,25.01c-.62.03-1.17-.14-1.65-.51-.48-.37-.69-.86-.62-1.47.03-1.2.67-1.89,1.9-2.06.62-.03,1.14.14,1.58.52.43.38.61.87.54,1.47.06,1.1-.53,1.78-1.75,2.05Zm18.97-9.27c-.07.8-.39,1.46-.94,1.99-.55.52-1.19.8-1.91.82-.83.03-1.54-.24-2.13-.82-.59-.58-.86-1.27-.79-2.07.07-.8.38-1.44.93-1.92.55-.47,1.25-.68,2.08-.61.73-.03,1.36.22,1.9.75.54.53.82,1.14.85,1.84Zm8.86,10.36c-1.64.05-2.59-.72-2.85-2.31-.13-.7.06-1.33.56-1.89.5-.57,1.16-.91,1.98-1.04,1.65-.05,2.6.73,2.85,2.32.12.8-.09,1.48-.64,2.04-.55.56-1.19.86-1.9.88Zm4.2-119.7c-.03-1.2-.51-2.21-1.44-3.04-.93-.83-2.03-1.28-3.29-1.34-1.37.04-2.58.55-3.64,1.53-1.06.98-1.5,2.12-1.35,3.42.03,1.1.55,2.08,1.54,2.95.99.87,2.1,1.29,3.35,1.26,1.24-.03,2.37-.54,3.36-1.51,1-.97,1.48-2.06,1.46-3.26Zm9.39,112.19c-1.65.03-2.5-.76-2.53-2.36-.12-.7.08-1.3.59-1.81.51-.51,1.13-.77,1.85-.78.83-.12,1.51.07,2.03.57.53.49.74,1.14.65,1.94.01.7-.24,1.28-.75,1.74-.51.46-1.13.69-1.85.7Zm9.08,9.63c.71-.11,1.31.06,1.77.51.46.45.75.97.86,1.57.01,1.6-.8,2.5-2.43,2.72-.61,0-1.18-.22-1.69-.66-.52-.44-.78-.97-.78-1.57-.11-.6.09-1.18.6-1.73.51-.56,1.07-.84,1.68-.84Zm18.09-15.16c-.83,0-1.5-.26-2.02-.76-.52-.5-.77-1.11-.77-1.8-.1-.8.16-1.48.79-2.02.63-.55,1.36-.82,2.2-.81.83.1,1.51.41,2.03.92.51.5.72,1.16.61,1.96,0,.7-.27,1.3-.8,1.79-.53.5-1.2.74-2.03.73Z"/>
      <path class="cls-1" d="m563.44,113.28c-.86.12-1.41.45-1.67.98-.26.53-.52,1.13-.8,1.81-.15.49-.28,1.03-.38,1.62-.11.59-.29,1.13-.54,1.61-.25.48-.55.93-.91,1.35-.35.42-.89.6-1.62.54-1.14-.2-1.91-.97-2.32-2.31-.16-.62-.21-1.25-.15-1.89.05-.65-.09-1.39-.44-2.22-.63,1.25-1.02,2.47-1.17,3.66-.15,1.19-.28,2.39-.38,3.58-.22,1.39-.41,2.77-.58,4.17-.17,1.39-.41,2.77-.73,4.15-.13,1.59-.76,2.85-1.86,3.76-.67.65-1.37.94-2.09.88-.82-.07-1.5-.57-2.05-1.51-.17-.52-.29-.98-.36-1.38-.07-.41-.14-.87-.21-1.37-.08-1.61-.09-3.17-.03-4.67.06-1.5.16-3.05.28-4.64.11-1.4.21-2.72.3-3.96.1-1.25.14-2.57.15-3.98.11-1.4-.12-2.62-.67-3.66-.56.46-.86.94-.9,1.44-.04.5-.07,1-.11,1.5-.17.79-.3,1.53-.4,2.23-.11.69-.29,1.43-.56,2.21-.39.97-1,1.48-1.84,1.52-1.05.02-1.8-.48-2.25-1.51-1.05-2.98-1.89-6-2.53-9.05-.64-3.05-.85-6.17-.64-9.36.43-4.88,1.25-9.64,2.49-14.26,1.23-4.63,2.34-9.31,3.33-14.05.16-.79.3-1.58.41-2.38.11-.79.19-1.59.25-2.39.03-.5-.16-.81-.59-.94-.54-.14-.99.03-1.35.51-.26.58-.55,1.17-.86,1.75-.31.58-.6,1.21-.87,1.9-.87,1.55-1.97,2.9-3.29,4.07-1.33,1.17-3.02,1.69-5.07,1.56-1.19-.07-2.2-.38-3.04-.93-.84-.55-1.56-1.24-2.17-2.08-.61-.83-1.1-1.74-1.48-2.71-.38-.97-.71-1.92-.99-2.83-.19-.61-.43-1.22-.72-1.84-.3-.62-.83-.84-1.61-.68-.89.16-1.29.59-1.21,1.29.07.71.2,1.41.38,2.12,1.08,4.46,1.88,8.88,2.4,13.27.52,4.38.38,8.81-.39,13.27-.17,1.09-.36,2.31-.6,3.65-.23,1.34-.6,2.67-1.09,4-.5,1.33-1.06,2.57-1.7,3.74-.64,1.17-1.45,2.13-2.44,2.88-1.64,1.22-2.61,2.88-2.92,4.96-.14.8-.39,1.66-.75,2.59-.36.93-1.11,1.38-2.26,1.32-1.25-.06-2.11-.69-2.58-1.91-.18-.61-.29-1.21-.32-1.81-.03-.6-.13-1.21-.32-1.81-.75.27-1.38,1.07-1.91,2.4-.52,1.33-.95,2.76-1.27,4.3-.32,1.54-.54,3.06-.64,4.55-.11,1.5-.18,2.59-.2,3.29-.04.9-.1,1.82-.18,2.77-.09.95-.25,1.82-.49,2.61-.38,1.79-1.39,2.65-3.03,2.59-1.44-.05-2.28-1.08-2.52-3.09-.18-3.91-.21-7.81-.08-11.71.04-1.2.05-2.38.04-3.53-.02-1.15-.16-2.33-.44-3.54-.19-.51-.39-1.04-.58-1.59-.19-.56-.66-.85-1.39-.87-.73-.02-1.24.24-1.52.78-.28.54-.43,1.17-.45,1.86-.13.8-.18,1.65-.15,2.55.03.9-.03,1.75-.15,2.55-.01.5,0,1.03.03,1.58.04.55,0,1.07-.12,1.57-.12.6-.32,1.14-.59,1.63-.27.49-.83.78-1.66.86-.73.08-1.32-.09-1.78-.5-.46-.41-.84-.87-1.14-1.38-.4-.91-.69-1.77-.88-2.57-.62-4.92-1.32-9.76-2.12-14.53-.8-4.77-1.47-9.56-2.02-14.37-1.84-15.94-.61-31.47,4.05-46.58,1.32-4.47,2.65-8.92,4-13.34,1.34-4.42,3.15-8.7,5.43-12.83,1.2-2.16,2.46-4.28,3.78-6.34,1.32-2.06,2.82-4.01,4.49-5.85,2.38-2.52,5.42-3.71,9.11-3.55,1.73.07,3.32.44,4.79,1.11.68.33,1.26.71,1.76,1.13.5.43,1.02.9,1.57,1.43,1.42,1.57,2.71,3.16,3.89,4.78,1.17,1.62,2.34,3.26,3.51,4.92.52.83,1.18,1.77,1.98,2.82.79,1.05,1.64,2.05,2.56,3,.91.96,1.91,1.77,3,2.44,1.09.67,2.2,1.04,3.33,1.11,2.14.14,4.3-.72,6.47-2.57.85-.74,1.62-1.56,2.31-2.47.69-.9,1.35-1.78,1.99-2.64,1.02-1.43,2.12-2.85,3.32-4.27,1.19-1.41,2.54-2.76,4.02-4.05,1.35-1.1,2.8-1.96,4.36-2.59,1.55-.63,3.3-.8,5.24-.54,2.39.41,4.37,1.21,5.94,2.41,1.56,1.2,2.79,2.64,3.66,4.33.88,1.69,1.57,3.46,2.08,5.32.51,1.86.91,3.66,1.19,5.39,1.73,9.21,2.69,18.96,2.92,29.24.23,10.28.06,20.06-.48,29.36-.37,5.59-1.03,11.08-1.96,16.46-.94,5.38-2.74,10.65-5.38,15.81-.9,1.62-1.6,3.33-2.1,5.14-.5,1.81-.94,3.65-1.34,5.52-.37,1.57-.86,2.88-1.48,3.92-.6.74-1.23,1.14-1.91,1.17-.68.03-1.25-.32-1.7-1.07-.38-.44-.62-.89-.73-1.35-.11-.46-.2-.95-.26-1.46-.06-1.61-.17-3.21-.34-4.78-.17-1.57-.29-3.12-.36-4.63-.08-.31-.1-.61-.07-.91.03-.3-.16-.62-.54-.95Zm-72.7,13.98c-.05,1.6-.84,2.38-2.39,2.34-1.65-.04-2.45-.86-2.42-2.46.03-1.3.72-2.03,2.07-2.2.72.02,1.36.26,1.92.73.55.47.83,1,.81,1.6Zm22.17-2.77c-.14.79-.51,1.45-1.1,1.98-.59.52-1.3.77-2.13.73-.82-.14-1.51-.49-2.05-1.07-.55-.57-.8-1.26-.77-2.06.03-.8.35-1.49.95-2.06.59-.57,1.31-.84,2.14-.81.83.04,1.54.39,2.14,1.07.59.68.87,1.42.83,2.22Zm27.84-3.29c1.14.08,1.67.67,1.59,1.77-.07,1-.64,1.55-1.69,1.68-.53.06-1.01-.12-1.44-.55-.44-.43-.59-.9-.45-1.38.28-1.08.95-1.59,1.99-1.51Zm19.06,4.4c-.07.8-.36,1.42-.87,1.88-.51.46-1.18.65-2,.58-.84.03-1.52-.23-2.04-.78-.53-.55-.81-1.17-.86-1.88-.04-.81.25-1.48.88-2.03.62-.55,1.35-.79,2.18-.72.83.07,1.48.38,1.96.92.47.54.73,1.22.76,2.02Zm6.86,8.47c.51.05.98.3,1.41.74.42.44.61.91.56,1.41.04.61-.18,1.09-.68,1.44-.5.35-1.01.55-1.53.6-1.33-.13-2.03-.9-2.11-2.31.13-1.4.91-2.02,2.36-1.88Z"/>
      <path class="cls-1" d="m637.57,53.48c1.51,1.24,2.91,2.39,4.21,3.44,1.3,1.06,2.6,2.15,3.89,3.26,3.86,3.34,6.7,6.94,8.52,10.79,1.82,3.85,2.59,8.19,2.33,13.01-.67,9.83-3.71,19.15-8.95,28.01-1.91,3.03-3.72,6.08-5.44,9.14-1.73,3.06-3.46,6.07-5.2,9.04-1.02,1.76-1.89,3.55-2.59,5.36-.71,1.81-1.16,3.71-1.37,5.71-.07,1.1-.2,2.12-.4,3.05-.2.93-.44,1.93-.7,3-.09.59-.29,1.17-.58,1.73-.3.56-.58,1.07-.86,1.53-1.12,1.85-2.47,2.55-4.06,2.11-1.49-.43-2.33-1.36-2.53-2.81-.2-1.45-.21-2.76-.03-3.95.3-2.68.59-5.4.9-8.13.3-2.74.6-5.45.89-8.13.29-1.98.19-3.76-.32-5.35-.59-1.8-1.52-1.99-2.78-.56-.25.27-.46.59-.62.97-.16.38-.38.75-.64,1.12-.28.46-.56.95-.85,1.47-.29.51-.57,1-.84,1.47-.72,1.31-1.85,1.86-3.39,1.64-1.52-.42-2.38-1.22-2.59-2.4-.21-1.19-.23-2.38-.06-3.57-.05-.41-.05-.79,0-1.14.05-.35-.19-.56-.71-.63-.51-.17-.86-.12-1.05.16-.2.28-.42.55-.67.82-1.25,1.45-1.91,3.23-1.98,5.33-.15,1.9-.4,3.75-.75,5.58-.35,1.82-.75,3.66-1.21,5.51-.26,1.17-.71,2.43-1.36,3.75-.64,1.33-1.68,1.94-3.12,1.86-1.44-.09-2.52-.93-3.25-2.53-.4-.96-.61-2.14-.64-3.56-.02-1.51.04-3,.17-4.44.13-1.45.34-2.91.63-4.38.3-1.58.53-3.13.67-4.68.14-1.55.26-3.12.35-4.72.05-.4.07-.8.07-1.2,0-.4-.18-.88-.54-1.43-.62.73-1,1.41-1.13,2.05-.13.64-.29,1.3-.48,1.98-.37,1.26-.65,2.49-.85,3.67-.2,1.19-.48,2.41-.85,3.67-.6,2.34-1.62,3.43-3.06,3.25-1.57.01-2.58-1.12-3.05-3.38-.33-1.65-.46-3.28-.37-4.88.08-1.6.17-3.25.26-4.95.28-4.2-.11-8.17-1.17-11.91-1.07-3.74-1.69-7.51-1.86-11.3-.17-3.79-.05-7.58.37-11.35.6-5.46,1.15-10.91,1.64-16.34.49-5.43,1.14-10.86,1.97-16.31.69-4.25,1.36-8.48,2-12.68.64-4.2,1.53-8.41,2.68-12.61,1.13-4,2.58-7.18,4.35-9.55,1.77-2.36,3.88-4.16,6.34-5.37,2.46-1.22,5.35-1.9,8.68-2.03,3.32-.13,7.1.08,11.33.65,3.54.48,6.95,1.26,10.23,2.34,3.28,1.08,6.23,2.55,8.86,4.42,2.62,1.87,4.81,4.08,6.55,6.63,1.74,2.55,2.79,5.53,3.16,8.94.53,4.54-.63,8.61-3.43,12.21-2.8,3.6-6.65,5.93-11.56,7-.47.13-.94.24-1.4.32-.47.08-1.04.17-1.73.27Zm-43.45,89.62c-.08.69-.41,1.23-.97,1.62-.57.38-1.21.58-1.93.6-.71-.09-1.29-.41-1.74-.96-.45-.56-.63-1.23-.54-2.03.39-1.57,1.35-2.26,2.89-2.08.71.09,1.3.41,1.75.97.45.56.63,1.18.55,1.88Zm31.6-115.4c.33-1.57.07-2.87-.77-3.89-.84-1.02-2.05-1.69-3.62-2-1.47-.19-2.77.07-3.9.78-1.13.71-1.88,1.65-2.26,2.81-.29,1.38.03,2.7.95,3.98.92,1.28,2.16,2.07,3.72,2.38,1.45.29,2.71.06,3.78-.71,1.07-.76,1.77-1.88,2.09-3.35Zm-15.33,40.49c-.23,1.79.25,3.41,1.44,4.87,1.19,1.47,2.75,2.33,4.7,2.59,1.74.13,3.32-.28,4.72-1.25,1.4-.97,2.22-2.29,2.46-3.98.25-1.78-.24-3.44-1.48-4.97-1.24-1.53-2.78-2.47-4.63-2.82-1.75-.23-3.34.22-4.77,1.34-1.43,1.13-2.24,2.54-2.46,4.22Zm6.11,66.36c1.95.28,2.89,1.42,2.81,3.43-.03.91-.45,1.68-1.27,2.32-.82.64-1.69.89-2.61.77-.82-.11-1.52-.52-2.1-1.2-.58-.69-.82-1.43-.71-2.22.02-.91.44-1.66,1.25-2.25.81-.59,1.69-.88,2.63-.84Z"/>
      <path class="cls-1" d="m694.41,136.08c-.48-.3-.82-.33-1.04-.06-.22.26-.45.47-.69.62-1.36.84-2.5,1.16-3.42.97-.72-.15-1.52-.72-2.38-1.72-.87-.99-1.5-1.45-1.89-1.38-.39.07-.85.62-1.38,1.63-.85,1.56-1.53,3.21-2.04,4.95-.51,1.73-.94,3.48-1.29,5.25-.33,1.67-.63,3.29-.9,4.87-.26,1.58-.71,3.17-1.35,4.78-1.14,2.53-2.41,3.65-3.82,3.37-1.61-.32-2.42-1.8-2.43-4.45-.07-2.36.04-4.65.31-6.89.27-2.24.58-4.5.91-6.78.28-1.47.54-2.95.78-4.43.23-1.48.34-2.99.31-4.52.11-.59-.08-.98-.58-1.18-.52-.1-.98.32-1.37,1.27-.36.74-.63,1.46-.81,2.14-.18.68-.4,1.4-.65,2.17-.2.47-.39.92-.57,1.34-.19.42-.43.86-.73,1.31-1.36,1.58-2.49,1.41-3.41-.49-.22-.55-.32-1.13-.32-1.74,0-.61.02-1.27.05-1.97.1-1.71.27-3.46.49-5.25.22-1.79.39-3.54.49-5.25.09-3.44-.14-6.84-.72-10.2-.58-3.36-1.22-6.72-1.93-10.1-.58-2.85-.9-5.7-.94-8.55-.05-2.85.07-5.72.36-8.62.76-7.48,2.21-14.66,4.38-21.54,2.17-6.88,5.25-13.57,9.3-20.05,1.76-2.73,3.92-5.44,6.5-8.11,2.58-2.67,5.48-4.98,8.72-6.91,3.23-1.93,6.73-3.34,10.49-4.22,3.76-.88,7.69-.9,11.76-.05,4.86,1.02,8.92,2.94,12.14,5.75,3.22,2.81,5.67,6.21,7.36,10.18,4.71,13.9,6.09,27.97,4.4,42.16-.11,1.41-.37,2.84-.77,4.29-.41,1.45-.72,2.86-.94,4.25-1.61,6.71-3.9,13.08-6.84,19.11-2.94,6.03-6.64,11.76-11.08,17.2-.72.76-1.4,1.55-2.03,2.38-.63.83-1.34,1.56-2.14,2.2-.8.64-1.63,1.17-2.48,1.59-.86.42-1.82.61-2.89.58-1.05-.13-2.03.11-2.92.73-.9.62-1.66,1.4-2.3,2.33-.64.94-1.15,1.92-1.54,2.96-.39,1.04-.72,1.94-1,2.7-.53,1.42-.97,2.83-1.33,4.24-.36,1.4-.81,2.82-1.33,4.24-.32.95-.88,2.06-1.68,3.32-.81,1.26-1.86,1.74-3.17,1.46-.71-.15-1.19-.46-1.46-.93-.27-.47-.42-1.01-.45-1.63-.03-.62,0-1.25.09-1.9.08-.65.18-1.21.28-1.7.31-1.98.66-3.98,1.03-5.99.37-2.02.67-4.02.88-6.02.02-.61.07-1.24.16-1.88.08-.65.02-1.25-.18-1.8Zm-25.51,9.11c-.23.67-.65,1.2-1.25,1.6-.6.39-1.26.52-1.97.39-.61-.11-1.13-.47-1.54-1.05-.42-.59-.62-1.23-.59-1.94.13-.69.52-1.25,1.19-1.69.66-.44,1.39-.53,2.19-.28.6.21,1.1.61,1.52,1.2.42.59.57,1.18.46,1.77Zm33.87-100.66c-.21,1.59.01,3.09.65,4.49.64,1.41,2.01,2.32,4.11,2.76,2.22.46,3.9.02,5.05-1.32,1.15-1.34,1.96-2.83,2.43-4.47.4-1.35.27-2.63-.41-3.84-.68-1.22-1.71-2.12-3.11-2.72-1.28-.57-2.6-.72-3.94-.43-1.34.29-2.49,1.05-3.44,2.28-.63.79-1.08,1.87-1.35,3.25Zm-16.14,102.65c.82.17,1.46.63,1.94,1.4.48.76.58,1.53.32,2.29-.16.78-.61,1.38-1.33,1.79-.72.41-1.49.53-2.3.37-.81-.17-1.45-.66-1.92-1.46-.47-.81-.57-1.6-.31-2.36.16-.79.6-1.39,1.32-1.8.72-.41,1.48-.49,2.28-.22Zm19.77-4.65c.09-.9.49-1.61,1.2-2.11.7-.51,1.47-.67,2.29-.48.84.09,1.51.5,1.99,1.22.48.73.63,1.48.45,2.26-.08.8-.49,1.45-1.25,1.94-.76.49-1.55.65-2.36.46-.84-.09-1.48-.46-1.92-1.12-.44-.66-.58-1.39-.4-2.17Z"/>
      <path class="cls-1" d="m769.2,154.56c-.46-.34-.8-.38-1.03-.14-.23.24-.48.44-.74.57-1.42.74-2.58.99-3.49.73-.71-.2-1.47-.83-2.27-1.88-.81-1.05-1.41-1.55-1.8-1.51-.4.05-.89.56-1.49,1.54-.96,1.5-1.75,3.1-2.37,4.79-.62,1.7-1.17,3.41-1.64,5.15-.45,1.64-.86,3.24-1.22,4.8-.37,1.56-.93,3.11-1.67,4.67-1.31,2.44-2.66,3.48-4.05,3.1-1.59-.43-2.31-1.96-2.14-4.61.09-2.36.34-4.64.77-6.86.42-2.21.88-4.45,1.37-6.7.38-1.45.74-2.91,1.07-4.37.33-1.46.54-2.96.61-4.49.15-.58-.01-.99-.5-1.22-.51-.13-1,.26-1.45,1.17-.41.72-.72,1.41-.95,2.08-.23.66-.5,1.37-.8,2.12-.23.46-.45.89-.67,1.3-.22.41-.49.83-.82,1.26-1.47,1.48-2.59,1.24-3.39-.72-.18-.56-.25-1.15-.2-1.75.05-.61.11-1.27.18-1.97.22-1.7.5-3.44.84-5.2.34-1.77.62-3.5.84-5.2.33-3.42.32-6.83-.04-10.22-.36-3.39-.77-6.79-1.25-10.21-.39-2.88-.52-5.74-.37-8.59.14-2.85.46-5.71.94-8.58,1.26-7.41,3.19-14.48,5.83-21.2,2.63-6.71,6.17-13.18,10.65-19.37,1.94-2.6,4.29-5.15,7.06-7.65,2.76-2.49,5.82-4.59,9.19-6.29,3.36-1.7,6.96-2.87,10.79-3.49,3.83-.62,7.76-.37,11.79.76,4.8,1.35,8.74,3.55,11.78,6.57,3.04,3.02,5.27,6.58,6.69,10.67,3.79,14.19,4.23,28.33,1.58,42.38-.21,1.4-.56,2.81-1.06,4.23-.5,1.41-.91,2.81-1.22,4.18-2.06,6.58-4.79,12.78-8.13,18.6-3.35,5.82-7.44,11.27-12.25,16.4-.78.7-1.5,1.45-2.19,2.24-.69.79-1.45,1.47-2.29,2.05-.84.58-1.71,1.05-2.59,1.41-.88.36-1.86.49-2.94.37-1.05-.21-2.04-.03-2.98.53-.94.56-1.76,1.28-2.46,2.17-.7.89-1.28,1.84-1.74,2.85-.46,1.01-.85,1.88-1.18,2.63-.62,1.38-1.16,2.76-1.62,4.14-.46,1.38-.99,2.76-1.61,4.14-.38.93-1.01,1.99-1.9,3.2-.89,1.2-1.98,1.61-3.28,1.24-.7-.2-1.17-.54-1.41-1.03-.24-.49-.35-1.04-.34-1.66.02-.62.09-1.25.21-1.89.13-.64.26-1.2.4-1.68.45-1.95.93-3.92,1.44-5.91.51-1.99.94-3.97,1.28-5.95.06-.61.16-1.23.28-1.87.13-.64.11-1.24-.06-1.81Zm-26.15,7.34c-.28.65-.73,1.15-1.36,1.51-.63.35-1.3.44-2,.26-.61-.16-1.1-.54-1.47-1.15-.38-.62-.54-1.27-.46-1.98.17-.68.6-1.21,1.3-1.6.69-.39,1.43-.43,2.22-.12.58.25,1.06.69,1.44,1.3.38.61.49,1.21.34,1.79Zm40.66-98.12c-.32,1.57-.19,3.08.35,4.53.54,1.45,1.86,2.46,3.94,3.04,2.19.61,3.9.29,5.15-.97,1.24-1.26,2.15-2.69,2.73-4.29.49-1.31.44-2.6-.15-3.86-.6-1.26-1.57-2.24-2.93-2.93-1.24-.66-2.55-.89-3.91-.7-1.37.19-2.56.87-3.6,2.04-.68.75-1.2,1.8-1.57,3.15Zm-23.03,101.32c.8.22,1.42.73,1.85,1.53.43.79.48,1.56.17,2.31-.22.77-.7,1.34-1.45,1.7-.75.36-1.52.43-2.32.21-.8-.22-1.41-.76-1.82-1.59-.41-.84-.47-1.63-.16-2.38.21-.77.69-1.34,1.44-1.7.75-.36,1.52-.39,2.29-.07Zm20.11-3.28c.15-.89.6-1.57,1.34-2.03.74-.46,1.52-.57,2.33-.32.84.15,1.48.6,1.91,1.36.43.76.54,1.52.3,2.29-.13.8-.59,1.41-1.38,1.85-.79.44-1.59.54-2.4.3-.84-.15-1.45-.56-1.85-1.25-.4-.69-.48-1.42-.26-2.19Z"/>
      <path class="cls-1" d="m833.74,174.46c-.67.3-1.1.65-1.3,1.06-.2.41-.48.81-.84,1.22-.36.4-.64.78-.82,1.14-.18.36-.45.74-.82,1.15-.7.71-1.47.86-2.34.46-.9-.31-1.35-.94-1.36-1.9-.04-.54,0-1.32.13-2.33.06-.51.16-.97.31-1.4.15-.43.03-.91-.34-1.46-.76.91-1.31,1.8-1.67,2.68-.36.88-.81,1.81-1.37,2.78-.94,2.11-1.81,4.27-2.62,6.48-.81,2.21-1.78,4.33-2.91,6.38-.52.88-1.18,1.84-1.97,2.9-.8,1.05-1.83,1.36-3.11.93-1.38-.46-2.06-1.43-2.07-2.9,0-1.48.17-2.74.52-3.78,1.5-5.03,3.01-10.06,4.51-15.1.38-1.14.68-2.3.91-3.49.23-1.19.21-2.41-.05-3.65-.57.02-.95.16-1.14.41-.2.25-.34.52-.43.81-.58,1.07-1.12,2.13-1.63,3.18-.51,1.04-1.04,2.05-1.58,3.03-.58,1.07-1.33,1.51-2.26,1.31-1.13-.27-1.73-.98-1.79-2.16-.02-.64-.03-1.27-.05-1.91-.02-.64.02-1.26.1-1.86.93-3.59,1.7-7.17,2.29-10.76.59-3.59,1.2-7.23,1.81-10.92.77-4.16,1.84-8.15,3.23-11.96,1.39-3.81,3.03-7.61,4.95-11.41,1.77-3.73,3.55-7.45,5.32-11.13,1.77-3.68,3.61-7.37,5.51-11.07,2.23-4.32,4.48-8.61,6.77-12.86,2.28-4.25,4.92-8.36,7.92-12.32,1.01-1.25,2.03-2.49,3.05-3.73,1.02-1.24,2.13-2.4,3.35-3.47,1.9-1.68,3.84-2.62,5.81-2.8,1.96-.18,4.21.37,6.73,1.65,3.88,1.97,5.61,5.17,5.17,9.57-.44,3.02-.97,5.99-1.57,8.91-.6,2.92-1.24,5.85-1.91,8.79-.76,3.87-1.63,7.86-2.6,11.97.6,0,1.03-.19,1.29-.58.26-.39.56-.73.91-1.03,2-2.58,3.92-4.9,5.74-6.95,1.83-2.05,3.78-3.93,5.86-5.62,2.08-1.69,4.35-3.23,6.83-4.62,2.47-1.38,5.33-2.76,8.56-4.11,2.08-.93,4.33-1.45,6.74-1.56,2.41-.11,4.85.05,7.32.46,3.45.79,6.28,2.43,8.45,4.89,1.27,1.25,1.94,2.81,2.02,4.67.08,1.86-.4,3.61-1.42,5.25-2.12,3.14-5.16,5.62-9.09,7.46-3.94,1.84-7.8,3.27-11.61,4.27-4.48,1.17-9.19,2.34-14.09,3.5-.95.29-1.91.57-2.85.86-.95.29-1.81.67-2.58,1.13-2.32,1.07-2.65,2.65-1.02,4.74.32.44.65.83,1.01,1.17.35.34.7.69,1.06,1.03,8.66,8.65,15.78,18.17,21.34,28.47,1.92,3.57,3.25,7.21,4,10.91.75,3.71.85,7.51.31,11.39-.8,5.95-2.48,11.42-5.02,16.43-2.54,5.01-5.74,9.8-9.57,14.39-.75.99-1.62,1.71-2.61,2.17-.81.32-1.51.35-2.1.12-.69-.28-1.15-.95-1.4-2.03-.12-1.13.01-2.15.39-3.08.28-.97.57-1.9.87-2.8.3-.9.61-1.88.93-2.94.13-.6.27-1.18.45-1.76.17-.58.17-1.22,0-1.94-.47.03-.79.17-.95.43-.16.26-.35.51-.56.75-.39.39-.7.74-.95,1.07-.25.33-.55.64-.89.94-1.14.84-2.2,1.06-3.19.67-.99-.39-1.57-1.22-1.77-2.47-.02-.55-.04-1.06-.07-1.56-.03-.5-.06-1.02-.07-1.56-1.02.25-1.7.68-2.05,1.29-.35.61-.71,1.22-1.06,1.84-1.43,2.77-2.79,5.54-4.1,8.3-1.31,2.76-2.77,5.49-4.38,8.19-.18.47-.49,1.04-.93,1.73-.44.69-.91,1.33-1.43,1.94-.52.6-1.09,1.08-1.72,1.42-.63.34-1.29.38-1.97.12-.68-.26-1.15-.77-1.42-1.51-.27-.75-.38-1.56-.31-2.45.06-.89.2-1.77.43-2.65.22-.88.42-1.55.6-2.02,1.2-2.86,2.45-5.68,3.73-8.45,1.29-2.77,2.39-5.65,3.29-8.62.15-.69.35-1.36.6-2.02.25-.65.3-1.38.15-2.19-.68.28-1.17.68-1.48,1.2-.31.52-.68,1.03-1.09,1.51-.34.3-.62.59-.85.88-.22.29-.51.58-.85.88-.89,1.16-1.97,1.45-3.22.87-1.35-.62-1.75-1.67-1.19-3.17.29-1.07.63-2.14,1.03-3.22.4-1.08.74-2.15,1.03-3.22,1.38-4.29,2.15-8.59,2.32-12.9.16-4.31.15-8.74-.04-13.29-.06-2.68-.23-5.33-.51-7.93-.28-2.6-.39-5.28-.34-8.02.1-.6.03-1.21-.22-1.83.03-.73-.25-1.1-.84-1.1-.38.08-.65.35-.82.82-.13,1.02-.3,1.96-.5,2.85-.2.88-.37,1.84-.5,2.85-1.17,5.53-2.65,10.9-4.41,16.11-1.77,5.21-3.96,10.32-6.56,15.34-.85,1.72-1.8,3.36-2.88,4.94-1.08,1.58-2.18,3.17-3.32,4.79-1.61,2.61-3.06,5.28-4.36,8-.27.75-.8,1.7-1.6,2.85-.8,1.15-1.74,1.53-2.82,1.15-.89-.31-1.48-1-1.77-2.05-.2-1.02-.2-2.14,0-3.34.26-1.39.59-2.73.99-4.02.39-1.29.87-2.58,1.43-3.87.56-.97,1.02-2.03,1.36-3.18.34-1.15.48-2.43.41-3.83Zm-28.81,10.87c-.89-.29-1.52-.81-1.88-1.55-.36-.75-.47-1.52-.32-2.31.28-.86.81-1.5,1.61-1.92.8-.43,1.69-.48,2.69-.15.8.26,1.41.75,1.84,1.47.43.72.5,1.51.22,2.36-.28.86-.82,1.49-1.62,1.92-.8.42-1.64.49-2.53.2Zm19.08,5.13c-.76-.37-1.3-.9-1.61-1.58-.32-.69-.31-1.35.01-1.98.36-.73.88-1.21,1.57-1.44.69-.24,1.42-.17,2.18.2,1.52.74,2.02,1.86,1.49,3.38-.76,1.54-1.97,2.01-3.65,1.43Zm32,12.54c-.28.75-.83,1.29-1.62,1.63-.8.34-1.57.31-2.32-.07-.78-.29-1.3-.76-1.57-1.39-.26-.64-.31-1.34-.13-2.13.28-.75.79-1.31,1.55-1.66.75-.36,1.52-.39,2.3-.1.78.3,1.35.8,1.7,1.52.34.72.38,1.45.09,2.2Zm17.69,1.88c-.98-.39-1.64-1-1.99-1.84-.35-.84-.34-1.72.02-2.65.3-1.06.94-1.81,1.9-2.23.96-.43,2.01-.47,3.13-.13.98.39,1.72,1.06,2.19,2.01.48.94.48,1.86,0,2.75-.41,1.02-1.12,1.73-2.13,2.13-1.01.4-2.06.39-3.13-.04Z"/>
    </g>
  </g>
</svg>